<?xml version="1.0" encoding="UTF-8"?>
<svg id="Capa_1" data-name="Capa 1" xmlns="http://www.w3.org/2000/svg" version="1.1" viewBox="0 0 994.8 494.9">
  <defs>
    <style>
      .cls-1 {
        fill: #1e1e1e;
      }

      .cls-1, .cls-2 {
        stroke-width: 0px;
      }

      .cls-2 {
        fill: #221e20;
      }
    </style>
  </defs>
  <g>
    <path class="cls-1" d="M524.4,141.5c0,0,.1,0,.2,0,2.5,1.1,6,2.2,10.7,2.3.1,0,.2,0,.3.1,1.4,1.5,9.8,15.8-6.4,33.2-.3.3,0,.7.3.7s.2,0,.3-.1c2.5-2.2,5.5-5.3,8.5-9.5,0-.1.2-.2.3-.2s.2,0,.3.1c2.7,2.8,19.9,21.1,20.7,59.9,0,.1,0,.2-.1.3-.8.7-5.2,4.4-19,5.6,0,0,0,0,0,0,0-1.8,0-2.6,0-4.4-.2-3.5-.6-7.1-1.3-10.5-.7-3.4-1.5-6.7-2.7-9.9-1-2.9-2.9-6.7-4.5-9.3,0-.1-.2-.2-.4-.2-.3,0-.6.3-.4.7.2.3.4.6.5.9,1.5,2.7,2.7,5.5,3.6,8.4,1.1,3.2,1.9,6.6,2.5,9.9.6,3.4,1,6.9,1.1,10.4,0,1.8,0,3.6,0,5.3,0,0,0,0,0,0-.6,0-1.3,0-2,.1,0,0-1.3,0-3.6,0-9.8,0-37.3-1.5-56.8-17.7,0,0-.1-.1-.1-.2h0c.7-2.2,1.6-4.4,2.5-6.6,1.4-3.1,3-6.2,4.8-9.1,1.6-2.6,3.4-5.1,5.5-7.3.2-.3.5-.5.7-.8.3-.3,0-.8-.3-.8s-.2,0-.3.1c-2.2,2.2-4.9,5.4-6.6,8-1.9,2.9-3.5,5.9-4.9,9-.6,1.3-1.2,2.6-1.7,4,0,0,0,0,0,0-3.8-1.8-15.2-7.9-22.7-17.8,0,0,0-.1,0-.2.2-.4.5-.8.7-1.3.2-.3.4-.6.7-1,0,0,0,0,0-.2.3-.6.7-1.1,1.1-1.6,1.9-2.7,4-5.2,6.4-7.6,2.4-2.5,5.1-4.7,7.9-6.8,2.7-2.1,5.6-3.9,8.6-5.6,2.7-1.5,5.5-2.8,8.4-3.7.3-.1.7-.2,1-.3.5-.1.4-.9-.1-.9s0,0-.1,0c-3,.9-6.9,2.3-9.7,3.8-3,1.6-5.9,3.4-8.7,5.4-2.9,2.1-5.6,4.4-8.1,6.8-2.4,2.4-4.7,4.9-6.7,7.7-.3.4-.5.8-.8,1.1,0,0,0,0,0,0s0,0,0,0c-1.8-2.9-5.7-9.9-8-21.2,0-.1,0-.3.1-.4,1.6-1.6,16-15.1,48.9-23.3h0c4.8,8.1,10.4,12.1,12.6,13.7.3.2.6.4.9.6,0,0,.1,0,.2,0,.2,0,.3,0,.4-.2.1-.2,0-.5-.2-.6-2.2-1.5-4.2-3.4-6-5.4-1.7-2-3.3-4.1-4.6-6.4-.6-1.1-1.2-2.2-1.7-3.3,0,0,.1-.1.2-.1,2.2-.6,11.9-3.1,25.1-3.1.6,0,1.3,0,2,0h0c.1,0,.3,0,.4-.2,0-.2.2-.3.3-.4,0-.1.2-.2.3-.2M524.4,140h0c-.6,0-1.2.3-1.5.8-.5,0-.9,0-1.4,0-13.2,0-22.9,2.4-25.5,3.2-.4.1-.7.3-1,.7-.2.3-.3.6-.3,1,0,0,0,0,0,0-.1,0-.2,0-.4,0-13.9,3.5-26.2,8.3-36.5,14.3-7.9,4.6-12,8.4-13,9.4-.5.5-.7,1.1-.5,1.7,2.4,11.3,6.2,18.4,8.2,21.6.2.3.4.5.7.6-.2.2-.3.5-.4.7,0,0,0,0,0,0-.2.4-.5.9-.7,1.3-.1.2-.2.5-.2.7,0,.4.1.8.4,1.1,7.5,10,18.7,16.1,23.2,18.2,0,0,0,0,0,0-.2.5-.4,1-.5,1.6,0,.3,0,.6,0,.8,0,.4.3.7.6,1,19.6,16.3,46.9,18.1,57.7,18.1s3.7,0,3.7,0c.7,0,1.3,0,2-.1.7,0,1.2-.6,1.4-1.2,0,0,0,0,.1,0s0,0,.1,0c13.9-1.2,18.7-4.9,19.9-6,.4-.4.6-.9.6-1.4-.3-16.5-3.6-31.4-9.8-44.1-3.2-6.7-7.2-12.5-11.3-16.8-.4-.4-.9-.6-1.4-.6s-.3,0-.5,0c1.6-3.6,2.6-7.7,2.4-12.1-.3-6-2.7-10.4-3.8-11.6-.4-.4-.9-.6-1.4-.6-4.7,0-8-1.2-10.2-2.1-.2-.1-.5-.2-.7-.2h0Z"/>
    <path class="cls-1" d="M548,133.5c.9,0,1.5.6,1.9,1.4.8,1.6,1.2.4,2.4,3,1.2,2.5-2.3,3.5-2.5,3.6,0,0,0,0,0,0,.3,0,.6,0,.8,0,2.6,0,1.7,2.3,1.3,2.8-.4.5-.6,1.4-.4,2.1.3.8,0,1.6,0,1.6,0,0,0,0,0,0,6.8,1.5,14.1,4.8,12.8,11.7-1.4,7.3-7.6,13.4-7.6,13.4h0l-.5-.3s0,0,0,0c0,0,2.3-3.6,3.1-4.9,3.7-6.2,5.1-12.9-2.8-16.2-6-2.5-10.8-3.2-10.9-3.2,0,0,0,0,0,0,0,0,.6.9.3,6.1-.3,5.2,6.8,7.6,6.8,7.6,0,0,0,0,0,0l-.3.3s0,0,0,0c-4.7,0-8.6-3.9-8.5-7.4,0-3.5.2-6.3-2.1-9.4-2.3-3.1-1.2-4.9-1.2-4.9s1.2-1.5,4-4.9c1.4-1.7,2.6-2.4,3.5-2.4M542.9,141.5h0c2.7-.4,6.9-2.4,6.9-2.4,0,0,0,0,0,0,0-.6-.7-1.9-1.5-2.4,0,0,0,0-.1,0-1,0-5.3,4.8-5.3,4.8,0,0,0,0,0,0M549.2,146.1s0,0,0,0c.5-1.8.4-2.5.4-2.5h0c-.5,0-1,0-1.4,0-2.4,0-4.4.7-4.4.8,0,0,0,0,0,0,2.1,1.5,5.5,1.9,5.5,1.9M548,132c-1.5,0-3,1-4.6,2.9-2.9,3.5-4.1,5-4.1,5-.5.7-1.3,3.2,1.2,6.6,1.9,2.6,1.9,4.9,1.8,8.2v.3c0,1.9.9,4,2.5,5.7,2,2,4.7,3.2,7.5,3.2s.8-.2,1-.4l.3-.3c.4-.4.5-.9.4-1.4-.1-.5-.5-.9-1-1.1,0,0-6-2.1-5.8-6.1.1-1.7.1-3.2,0-4.3,1.9.4,5,1.3,8.5,2.7,2.5,1,4,2.4,4.6,4.2.8,2.5,0,5.8-2.5,9.9-.7,1.1-2.6,4.2-3,4.8-.2.3-.3.7-.2,1.1,0,.4.3.7.6.9l.5.3c.2.2.5.2.8.2s.7-.1,1-.4c0,0,6.6-6.4,8-14.2.8-4.4-.8-10.1-12.6-13.1,0-.3,0-.6-.2-.9,0-.3,0-.6,0-.7.6-.7,1.2-2.3.6-3.6,0-.2-.2-.4-.4-.6.2-.2.4-.5.5-.8.3-.7.5-1.7-.1-3-.8-1.7-1.4-2.1-2-2.5-.2-.1-.2-.1-.4-.5-.7-1.4-1.9-2.3-3.2-2.3h0Z"/>
    <path class="cls-1" d="M531.8,96.1c1.1,0,2.6.7,3,1,.5.4,2.8,1.5,2.7,4.6,0,.2,0,.3,0,.5,0,.3.2.4.4.4s.1,0,.2,0c0,0,0,0,.1,0,0,0,.2,0,.3,0,.7.4.9,1.7.4,2.6,0,.2,0,.4,0,.5,1.5,1.7.2,4.1-.4,5.3.2-.2.4-.4.5-.5.6-.5,1-.7,1.4-.7.5,0,.8.3,1,.5,1.6,1.8,1.2,4.1,1,5.8-.2,1.2-1.1,1.9-1.7,2.2-.2.1-.3.4-.2.6.6,1.1,2.1,4.4,1.3,7.6-1.2,5.2-2.6,7-3.7,9.2-1,2-2.2,3.9-2.7,6.2,0,.2-.2.3-.4.3h0c-1.4,0-6.9-.3-12.4-3.5,0,0,0,0,0,0-.8-.4-2.3-1.3-3.4-2-5.3-3.5-5.3-4.6-7.5-6.5-2.3-2-3.6-2.6-5-3.6-.4-.3-.7-.5-1.2-.7-1-.5-2.9-1.3-4.3-1.4-.2,0-.3-.1-.4-.3,0-.2-.2-.3-.4-.3-.6,0-1.8,0-3,0s-2.2,0-2.6,0c0,0-.1,0-.2,0-1.6,0-2.7-.5-3.3-1-.3-.3-.1-.8.3-.8h.9c.2,0,.4-.1.4-.3.2-.7.7-2.1,2-2.2.5,0,1,0,1.4,0s.7,0,.9,0c0,0,0,0,0,0,.2,0,.4-.1.4-.3.1-.6.6-1.6,2-1.6h10.5c1.4,0,1.8,1.1,2,1.6,0,.2.2.3.4.3s0,0,0,0c.2,0,.6,0,.9,0s.9,0,1.4,0c1.2.1,1.8,1.5,2,2.2,0,.2.2.3.4.3h.9c.4,0,.6.5.3.8-.5.4-1.4.9-2.8,1,0,0,0,0,0,0-.3,0-6.6,0-9.3,0-.2,0-.5.1,0,.2.5.1.9.3,1.2.6,0,0,1.4.9,2.2.9h0c.2,0,.4,0,.6,0,.8.2,2.5.8,2.8,2.2.2.7,1.3,1.3,1.5,1.4,1.5,1.1,5.2,2.8,7.6,3.9,1.2.6,2.4,1.3,3.5,2.1.2.1.3.1.4.1.3,0,.4-.3,0-.6-1.1-.7-1.8-1.9-1.8-2.1,0,0,0,0,0,0-.6-1.6-.3-2.8.4-3.8,0-.1.1-.3,0-.5-.5-.8-.5-1.5-.2-2.6.4-1.4,3.8-4.9,5.5-7,.7-.9,2-2.2,3.4-3.5.6-.6,1.1-1.2,1.5-2,0-.1,0-.2,0-.2s0,0-.1.1c-.9,1.1-2.6,2.3-3.5,2.3s-.1,0-.2,0c-1.1-.3-1.6-.7-2.8-1.7-1.2-.9-2.2-2.6-2.5-3.7-.3-.8-.5-1.7-.7-2.2,0-.1-.1-.2-.3-.3-1.7-.6-2.5-3.2-2.1-5.3.4-2.2,2.8-4.5,3.6-5.2.7-.6,1.9-.8,2.5-.8.1,0,.2,0,.3,0,.1,0,.2,0,.3,0,.3,0,.6,0,1.7-.4.2,0,.3,0,.5,0M531.8,94.6h0c-.4,0-.7,0-1,.1h-.1c-.5.2-1,.3-1.1.4,0,0,0,0-.1,0-.1,0-.2,0-.4,0-.5,0-2.2,0-3.5,1.1-.6.5-3.6,3.1-4.1,6.1-.5,2.5.4,5.6,2.6,6.8.1.5.3,1.1.5,1.7.4,1.3,1.5,3.3,3,4.5l.4.4c.7.6,1.3,1,2.1,1.3-.5.5-.8.9-1.1,1.2-.5.6-1.1,1.3-1.8,2.1-2.2,2.6-3.6,4.2-4,5.5-.3,1.1-.4,2.1,0,3.1-.5.9-.7,2-.6,3.1-3.5-1.6-6.1-3-7.1-3.7,0,0,0,0,0,0,0,0,0,0-.2,0-.5-.3-.7-.5-.8-.5-.2-.8-.7-1.5-1.4-2h2.4s0,0,.1,0c1.8-.1,3-.8,3.7-1.3.6-.5.9-1.4.6-2.1-.3-.8-1-1.3-1.8-1.3h-.2c-.6-1.5-1.7-2.4-3-2.5-.5,0-1,0-1.5,0s-.2,0-.2,0c-.6-1.2-1.7-1.9-3.1-1.9h-10.5c-1.4,0-2.5.7-3.1,1.9,0,0-.2,0-.2,0-.5,0-1,0-1.5,0-1.3.1-2.4,1-3,2.5h-.1c-.8,0-1.5.5-1.8,1.3-.3.8,0,1.6.6,2.1.7.6,2.1,1.3,4.2,1.3s.2,0,.3,0c.3,0,.9,0,2.6,0s1.8,0,2.4,0c.3.3.8.6,1.2.6.8,0,2.2.5,3.8,1.2.3.1.6.3.9.5.5.4,1.1.8,1.6,1.1.9.6,1.9,1.3,3.4,2.5.6.5,1.1,1,1.6,1.6,1.1,1.2,2.4,2.6,6.1,5,1.2.8,2.7,1.7,3.6,2.1,5.8,3.4,11.5,3.7,13.1,3.7.9,0,1.7-.6,1.9-1.5.4-1.5,1.1-2.9,1.8-4.4.3-.5.5-1,.8-1.5.2-.4.4-.8.7-1.2.9-1.8,2.1-3.9,3.1-8.2.7-3.1-.3-6.1-1.1-7.8.7-.6,1.4-1.5,1.6-2.8v-.4c.3-1.8.7-4.5-1.3-6.7-.5-.5-1-.8-1.5-.9.1-1,0-2.1-.6-3.1.5-1.4,0-3.2-1.2-3.9-.1,0-.2-.1-.3-.2-.1-3.2-2.4-4.7-3.1-5.2,0,0-.1,0-.1,0-.6-.5-2.5-1.3-3.9-1.3h0Z"/>
  </g>
  <g>
    <g>
      <path class="cls-1" d="M743.5,282.2c0,3.3-2.6,6-5.9,6-3.2,0-5.8-2.7-5.8-6,0-3.3,2.6-6,5.8-6,3.2,0,5.8,2.7,5.8,6Z"/>
      <path class="cls-1" d="M243.4,321.9c-1-1.4-3-1.6-4.3-.6-.1,0-12.8,9.6-17.1,12-3,1.7-5.6,2.1-6.9,1.7-.2,0-.3-.1-.4-.2.3-2.5,3.4-9.5,7.3-17.4.6-1,1.1-2,1.5-3,0-.1,0-.2.1-.3,1.7-3.5,3.6-7,5.4-10.4.8-1.5.3-3.4-1.3-4.2-1.5-.8-3.4-.3-4.2,1.3,0,0-1,1.8-2.3,4.4-1.2-3.1-3.4-5.7-6.9-6.9-9.5-3.3-21.7,1.3-28.3,7.3-5.3,4.6-9,10.6-10.4,16.3-2.6,1.9-12.8,9.5-16.5,11.6-2.8,1.5-6.5,2.2-9,1.5,0,0,0,0,0,0,0,0,0,0,0,0,0,0,0,0,0,0,0,0,0,0,0,0-4.8-1.2-8.3-3.6-11.6-6.5,14.1-11,20.1-19.9,29.5-33.7,1-1.5,2-3,3.1-4.6,8.2-1.3,15.6-3.2,21.1-5.7,15.3-6.9,19.3-17.3,18.1-24.2-.9-5.2-4.7-8.9-9.6-9.3-7.4-.6-12.8,5.7-19.6,14.7-5.6,7.3-9.9,13.4-13.7,18.9-21.7,3-46.7,1.3-50.3-2.5-.5-.5-.7-.9-.7-.9.2-1.2,4.9-3.6,10-4.8,1.7-.4,2.7-2.1,2.3-3.7-.4-1.7-2-2.7-3.7-2.3-3,.7-12.9,3.4-14.5,9.1-.5,1.7-.5,4.3,2.2,7,5.6,5.7,28.8,7.2,50.1,4.9-9.2,13.5-15.1,22.2-29.1,32.9-1.5-1.3-3-2.6-4.6-3.8-12.1-8.6-22.9-7.3-28.5-3.6-4.9,3.3-7.1,8.8-5.8,14.5,1,4.5,4.1,8,8.4,9.6,1.9.7,3.9,1,6.1,1,6.6,0,14.7-3.2,23.3-9.3.2-.2.5-.3.7-.5,4,3.5,8.6,7,15.1,8.7,0,0,.1,0,.2,0,4.1,1,9.3.2,13.4-2.1,2.9-1.6,8.9-5.9,13.2-9.1,0,.1,0,.3,0,.4,1.4,5.9,4.7,8.6,7.1,9.8,1.8.9,3.8,1.3,6,1.3,2.4,0,4.9-.5,7.3-1.6,3.4-1.5,8.5-4.6,13.6-8.6-1.2,3.9-.9,5.3-.3,6.3.9,1.7,2.5,2.9,4.4,3.5.9.3,1.9.4,2.8.4,3.7,0,7.3-1.7,8.9-2.6,4.7-2.6,17.3-12.1,17.8-12.5,1.4-1,1.6-3,.6-4.3ZM185.9,269.5c6.2-8.1,10.1-12.3,13.8-12.3s.3,0,.4,0c2,.2,3.5,1.7,3.9,4.1.8,4.7-2.5,12.1-14.5,17.5-3.9,1.7-8.5,3.1-13.6,4.2,2.9-4.1,6.2-8.6,10-13.6ZM105.2,335.3c-3-1.1-4.1-3.5-4.5-5.2-.8-3.2.4-6.1,3.2-8,1.7-1.1,4.1-1.9,7-1.9s9,1.4,14.4,5.3c1,.8,2.1,1.6,3.1,2.5-9.5,6.6-17.9,9.3-23.2,7.3ZM193.1,334.1c-3,1.3-5.9,1.5-8,.4-1.9-.9-3.2-2.9-3.9-5.7-1.2-5.2,2.5-13.1,8.8-18.6,4.1-3.7,11.1-6.8,17.3-6.8s3.4.2,4.9.8c4.5,1.6,4.3,8.4,4,10.7-5.3,8.4-17.1,16.6-23.1,19.2Z"/>
      <path class="cls-1" d="M871.9,321.9c-1-1.4-3-1.6-4.3-.6-.1,0-12.8,9.6-17.1,12-3,1.7-5.6,2.1-6.9,1.7-.2,0-.3-.1-.4-.2.3-2.5,3.4-9.5,7.3-17.4.6-1,1.1-2,1.5-3,0-.1,0-.2.1-.3,1.7-3.5,3.6-7,5.4-10.4.8-1.5.3-3.4-1.3-4.2-1.5-.8-3.4-.2-4.2,1.3,0,0-1,1.8-2.3,4.4-1.2-3.1-3.4-5.7-6.9-6.9-9.5-3.3-21.7,1.3-28.3,7.3-6.8,5.9-11,14-11.1,20.9-11,6.9-19.3,9.5-21.2,8.7-.9-.4-1-.8-1.1-.9-.3-.8.2-2.2.4-2.7.5-.9,6.2-10.7,8.2-14.2.3-.5.5-.9.8-1.4,2.1-3.5,4.5-7.5,3.6-11.9-.9-4.2-4.4-6.1-10.5-5.7-6.8.5-14.9,5.3-24.2,14.2l6.2-11.1s0,0,0,0l.6-1.1c.8-1.5.2-3.3-1.3-4.1-1.5-.8-3.3-.3-4.2,1.1-5.7,9.7-23.4,35.3-36.1,37.7-4.1.7-7,.5-7.7-.7-1.6-2.4,1.7-9.7,5-14.9,5.5-8,10.6-18.7,10.9-19.3.7-1.5,0-3.4-1.5-4.1-1.5-.7-3.4,0-4.1,1.5,0,.1-4.5,9.3-9.2,16.6,0,0,0,0,0,0-.3.4-.8,1.2-1.5,2.2-1.1,1.6-2.3,3.1-3.3,4.3-5.1,5.6-18.2,16.5-26.1,14.8-.7-.1-.8-.4-.9-.6-1.1-2.6,1.7-10.2,5.2-16.3,4.6-6.8,8.2-14.4,8.4-14.8.7-1.5,0-3.4-1.5-4.1-1.6-.7-3.4,0-4.1,1.5,0,0-3,6.2-6.8,12.2-.2.2-.4.4-.5.6-.2.3-.5.8-.8,1.4-1.4,2-2.8,3.9-4.2,5.4-5.1,5.6-18.2,16.5-26.1,14.8-.7-.1-.8-.4-.9-.6-1.2-2.8,2.2-11.4,6-17.8,0,0,0,0,0-.1l7.2-13.1c.7-1.3.4-3-.8-3.9-1.2-.9-2.9-.9-4,.1-14.4,13-32.3,31.7-45.4,45.8l15.5-27.8c1-1.7,1.8-3.2,2.4-4.4.8-1.5.1-3.4-1.4-4.1-1.5-.8-3.4-.1-4.1,1.4-.1.3-.3.6-.4.9l-1.6,2.9c-2.5,4.3-6.9,10.3-13.5,15.1-5.9,4.3-10.8,6.2-14.3,5.7-2.3-.4-4.3-1.8-6.4-4.7-1.1-1.5-1.6-5.2-.2-9.5,1.3-3.9,5.3-10.9,16.4-14.1,17.5-5,28.1,1.1,28.6,1.4,1.5.9,3.4.4,4.3-1.1.9-1.5.4-3.4-1-4.3-.5-.3-13.2-7.8-33.5-2-10.1,2.9-17.6,9.5-20.6,18-.6,1.6-.9,3.3-1.1,4.9-5.4,6-18.4,12.8-22,11.4-.4-.1-.5-.3-.5-.3h0c-.5-1.3,2.8-6.6,4.4-9.2.7-1,1.3-2.1,1.9-3.1,4.7-7.9,5.6-10.6,2.4-17.1-.7-1.4-1.6-2.7-2.4-4,0-.1-.1-.2-.2-.3,1.8-1.8,3.4-3.7,4.5-5.8,3.3-6.1,2.1-9.7,1.2-11.3-1.1-1.8-3.1-2.9-5.3-2.8-3.1.1-6.1,2.3-8,5.8-2.6,5-1.9,9.2-.3,12.7-4.2,3.1-9.1,5.6-12.7,7.4-1.6.8-2.9,1.5-4,2.1,0,0-.2,0-.2.1-.1-1.6-.6-3.2-1.2-4.5-3-6-8.4-9.6-14.4-9.7h-.1c-4.5,0-8.5,2.1-10.2,5.4,0,.1-.1.3-.2.4-2.3.8-4.6,1.9-6.9,3.4-6.9,4.5-11.6,12.8-12.2,20.2-10.2,7.3-21,11.5-23.3,10.8-2-2.4-2.1-6.3-2.1-6.4,0-.9,0-1.7,0-2.6,1.1-.8,1.9-1.5,2.5-2,2.7-1.9,30-21.9,44-54.1.4-.9,1.9-4.3.6-7.2-.7-1.5-2-2.6-3.7-3-3-.7-6.8.7-10.7,4.1-.4.3-34.4,30.5-38.5,58.8-3,2.1-7.2,4.7-11.4,7-10.1,5.4-14.3,5.7-15.1,5.3-2.1-2.4-2.2-6.4-2.2-6.4,0-.7,0-1.4,0-2.2.5-.4.9-.6.9-.7.4-.3.7-.7.9-1.1.2-.2.5-.4.6-.6,2.8-2,30.1-22,44-54.1.4-.9,1.9-4.3.6-7.2-.7-1.5-2-2.6-3.7-3-3-.7-6.8.7-10.7,4.1-.4.3-34.8,30.9-38.6,59.4,0,0-.2.2-.3.2-4.1,3-10.8,7.9-13.7,9.5-3,1.7-5.6,2.1-6.9,1.7-.2,0-.3-.1-.4-.2.3-2.5,3.4-9.5,7.3-17.4.6-1,1.1-2,1.5-3,0-.1,0-.2.1-.3,1.7-3.5,3.6-7,5.4-10.4.8-1.5.3-3.4-1.3-4.2-1.5-.8-3.4-.3-4.2,1.3,0,0-1,1.8-2.3,4.4-1.2-3.1-3.4-5.7-6.9-6.9-9.5-3.3-21.7,1.3-28.3,7.3-5.4,4.7-9.2,10.9-10.5,16.6-3.1,2.3-12.5,9.3-16.1,11.3-2.7,1.5-6.4,2.1-8.9,1.5-.2,0-.5-.2-.6-.4-.3-.7.3-2.4,1-3.6,0,0,0,0,0,0,.2-.3,16.5-27.3,20.9-34.8.5-.8,2.6-4.9,1.5-9-.6-2.1-2-3.8-4.1-4.9-5-2.6-11-.1-16.8,4.3,1.9-5.5,1.9-9.8,0-12.9-2.2-3.4-6.1-4.2-8.1-4.1-4.1.1-8.6,1.9-13.1,4.6,3.7-12,5.8-20.9,6-21.9.4-1.7-.7-3.3-2.3-3.7-1.7-.4-3.3.7-3.7,2.3,0,.3-3.1,13.6-8.6,29.7-3.9,3.4-7.7,7.1-10.9,10.6-9.9,10.8-19.3,23.9-22.7,32-4.4,10.3-5,15.5-2.3,17.9.5.4,1.5,1.1,2.9,1.1s2-.3,3.3-1c15.6-9,27.5-35.2,35-56.9,6.1-5,11.9-8.3,16.5-8.5,0,0,2,0,2.8,1.3.5.9,1.4,3.7-2.1,11-2,3.2-27.1,43.9-30.1,48.9-.9,1.5-.4,3.4,1.1,4.3,1.5.9,3.4.4,4.3-1.1,1.5-2.5,9.1-14.8,16.2-26.4,0,0,0,0,0,0,8.4-12.4,23.7-29.2,29.7-26,.7.4.9.8,1,1.2.4,1.2-.3,3.2-.9,4.2-4.3,7.5-20.6,34.4-20.8,34.7h0c-.3.5-.5.9-.7,1.3-.5,1-.8,2.1-1,3.1-.9,4.2,1,7.5,4.8,8.7.1,0,.2,0,.3,0,1.1.3,2.4.4,3.7.4,3.3,0,6.8-.9,9.8-2.5,2.8-1.6,8.7-5.7,12.9-8.8,0,0,0,.1,0,.2,1.4,5.9,4.7,8.6,7.1,9.8,1.8.9,3.8,1.3,6,1.3,2.4,0,4.9-.5,7.3-1.6,3.4-1.5,8.5-4.6,13.6-8.6-1.2,3.9-.9,5.3-.3,6.3.9,1.7,2.5,2.9,4.4,3.5.9.3,1.9.4,2.8.4,3.7,0,7.3-1.7,8.9-2.6,2.4-1.3,6.9-4.5,10.8-7.3.3,2.2,1.2,5.6,3.6,8.3,1.2,1.3,2.8,2,4.9,2.1.1,0,.3,0,.4,0,6.4,0,17.5-5.9,25.5-11,.2,2.1,1,6,3.7,9,1.2,1.4,3,2,5.2,2,7.1,0,18-6.4,23.5-10.1,1.3,3.4,4.5,7.9,12.6,8.9,9.5,1.2,19.2-3.8,25.9-13.3,2.5-3.6,4.3-7.3,5.2-10.8,1.4-.5,2.8-1,4-1.8.9-.5,2.2-1.2,3.7-1.9,3.8-1.9,8.6-4.4,13-7.5.7,1.1,1.4,2.1,1.9,3.1,1.9,3.8,2,4.1-2.1,11.1-.6,1-1.2,2-1.9,3-3.3,5.3-6.4,10.2-5.1,14.4.4,1.3,1.5,3.1,4.1,4.1,1,.4,2.2.6,3.4.6,6.6,0,15.8-5.3,21.6-10.1.4.9.8,1.8,1.3,2.6,1.9,2.7,5.1,6.3,10.4,7.2.7.1,1.5.2,2.2.2,4.2,0,9-1.8,14.4-5.4l-17.4,31.2h0c-.8,1.5-.3,3.4,1.2,4.2.5.3,1,.4,1.5.4,1.1,0,2.1-.6,2.7-1.6l.7-1.2c2.6-2.9,26.3-29.4,48.3-51.1-2.7,5.3-6.2,13.9-4,19,.9,2.2,2.8,3.7,5.2,4.2,8.6,1.9,19-5.1,25.5-10.6-.3,2.3-.3,4.6.5,6.4.9,2.2,2.8,3.7,5.2,4.2,1,.2,2,.3,3,.3,7.5,0,15.8-5.4,21.5-10.1-.2,2.3.1,4.4,1.3,6.1,2.3,3.6,7,4.8,14.1,3.5,5.2-1,10.7-4.6,15.9-9.3l-2.9,5.2h0c-.3.6-.3.8-.4,1.1-.2,1.4.6,2.8,1.9,3.3.4.1.8.2,1.1.2,1,0,2-.5,2.6-1.3,0,0,0,0,0,0,6.6-9.6,26.7-34.6,40.1-35.7,3.2-.3,3.8.2,3.9.7.4,2-1.2,4.8-2.9,7.5-.3.5-.6,1-.9,1.4-2.2,3.7-8.3,14.3-8.3,14.3,0,0,0,0,0,0-.2.4-2.1,4.1-.8,7.7.5,1.4,1.7,3.4,4.5,4.6,5.9,2.5,17.9-3.8,24.9-7.9,1.6,4,4.2,6,6.3,7.1,1.8.9,3.8,1.3,6,1.3s4.9-.5,7.3-1.6c3.4-1.5,8.5-4.6,13.6-8.6-1.2,3.9-.9,5.3-.3,6.3.9,1.7,2.5,2.9,4.4,3.5.9.3,1.9.4,2.8.4,3.7,0,7.3-1.7,8.8-2.6,4.7-2.6,17.3-12.1,17.8-12.5,1.4-1,1.6-3,.6-4.3ZM512.1,269.2c2.2-1.9,3.8-2.6,4.7-2.7,0,.5-.3,1-.5,1.4,0,0,0,.1,0,.2-10.9,25.2-31.1,43.1-38.9,49.3,6.7-20.8,28.2-42.6,34.8-48.2ZM290.2,334.8c.4-1.7,1.2-4.6,3.2-9.2,3.1-7.2,12.5-20.6,23-31.6-6.7,16.7-15.6,33.6-26.2,40.8ZM392.1,334.1c-3,1.3-5.9,1.5-8,.4-1.9-.9-3.2-2.9-3.9-5.7-.3-1.1-.3-2.4-.1-3.8.1-.4.2-.8.2-1.2,1-4.5,4.2-9.8,8.7-13.7,4.1-3.7,11.1-6.8,17.3-6.8s3.4.2,4.9.8c4.5,1.6,4.3,8.4,4,10.7-5.3,8.4-17.1,16.6-23.1,19.2ZM477.6,269c2.2-1.9,3.8-2.6,4.7-2.7,0,.5-.3,1-.5,1.5,0,0,0,.1,0,.2-10.9,25.2-31.1,43.1-38.9,49.3,6.7-20.7,28.2-42.6,34.8-48.2ZM535,323.8c-5.4,7.6-12.9,11.6-20.1,10.7-4.4-.5-7-2.5-7.8-5.8-1.4-5.9,3-14.7,9.3-18.9.9-.6,1.8-1.1,2.8-1.6.5,1.6,1.4,3.2,2.9,4.5,3.7,3.6,10.1,5.3,16.3,5.1-.8,2-1.9,4-3.3,6ZM526.3,308.3c-1-.9-1.4-1.9-1.3-3,.2-.4.4-.9.4-1.4,0,0,0-.2.1-.3.5-1,2.3-2,4.7-2,1.7,0,6.1.6,8.9,6.2.5,1,.7,2.2.6,3.6-5.3.6-10.9-.7-13.5-3.2ZM567.8,295.6c-.4-1.7-.2-3.4.8-5.3,1-1.9,2.1-2.5,2.6-2.5.1.5.2,2.1-1.4,5-.5,1-1.2,2-2,2.9ZM821.6,334.1c-3,1.3-5.9,1.5-8,.4-1.9-.9-3.2-2.9-3.9-5.7-1.2-5.2,2.5-13.1,8.8-18.6,4.1-3.7,11.1-6.8,17.3-6.8s3.4.2,4.9.8c4.5,1.6,4.3,8.4,4,10.7-5.3,8.4-17.1,16.6-23.1,19.2Z"/>
    </g>
    <g>
      <path class="cls-1" d="M389.7,382.3v17.8h-2.5v-15.6h-4v-2.2h6.5Z"/>
      <path class="cls-1" d="M409.4,392.5c.5.7.8,1.6.8,2.6s-.3,2-.9,2.8c-.6.8-1.4,1.4-2.5,1.8-1.1.4-2.3.6-3.8.6s-2.7-.2-3.7-.6c-1.1-.4-1.9-1-2.5-1.8-.6-.8-.9-1.7-.9-2.8s.3-1.9.8-2.6c.5-.7,1.3-1.3,2.3-1.7-.8-.4-1.4-.9-1.9-1.6-.4-.6-.6-1.4-.6-2.3s.3-1.8.8-2.6c.5-.7,1.3-1.3,2.2-1.7,1-.4,2.1-.6,3.4-.6s2.4.2,3.4.6c1,.4,1.7.9,2.3,1.7.5.7.8,1.6.8,2.6s-.2,1.6-.6,2.3c-.4.7-1.1,1.2-1.9,1.6,1,.4,1.8.9,2.3,1.7ZM406.4,397.4c.8-.6,1.2-1.4,1.2-2.4s-.4-1.8-1.2-2.3c-.8-.6-1.9-.9-3.3-.9s-2.5.3-3.3.9c-.8.6-1.2,1.3-1.2,2.3s.4,1.8,1.2,2.4c.8.6,1.9.9,3.3.9s2.5-.3,3.3-.9ZM400.2,385c-.7.5-1,1.2-1,2.1s.3,1.6,1,2.1c.7.5,1.6.8,2.9.8s2.2-.3,2.9-.8c.7-.5,1.1-1.2,1.1-2.1s-.4-1.6-1.1-2.1c-.7-.5-1.7-.8-2.9-.8s-2.2.3-2.8.8Z"/>
      <path class="cls-1" d="M426.3,384.4c1.3,1.5,1.9,3.7,1.9,6.6s-.4,3.7-1.1,5.1-1.7,2.5-2.9,3.2c-1.3.7-2.7,1.1-4.4,1.1s-1.7,0-2.4-.3-1.4-.4-2-.8l1-2c.9.6,2,.8,3.4.8s3.3-.6,4.3-1.7c1-1.1,1.6-2.8,1.6-5v-.6c-.5.8-1.2,1.3-2.1,1.7-.9.4-1.9.6-3,.6s-2.2-.2-3.1-.7c-.9-.4-1.6-1.1-2.2-1.9-.5-.8-.8-1.8-.8-2.8s.3-2.1.8-2.9c.5-.8,1.3-1.5,2.2-2,.9-.5,2-.7,3.2-.7,2.4,0,4.2.8,5.5,2.3ZM423.2,390.6c.6-.3,1.1-.7,1.5-1.2.3-.5.5-1.1.5-1.8s-.2-1.2-.5-1.7c-.3-.5-.8-.9-1.4-1.2-.6-.3-1.4-.5-2.3-.5s-2.1.3-2.8.9c-.7.6-1.1,1.5-1.1,2.5s.4,1.9,1.1,2.5c.7.6,1.7.9,2.9.9s1.5-.2,2.1-.5Z"/>
      <path class="cls-1" d="M444.3,393.6v-11.2h-2.7l-9.1,11.6v1.8h9.4v4.4h2.5v-4.4h3.4v-2.2h-3.4ZM435.5,393.6l6.3-8.2v8.2h-6.3Z"/>
      <path class="cls-1" d="M480.1,400.1v-13s-6.5,10.8-6.5,10.8h-1.2l-6.4-10.7v12.9h-2.4v-17.8h2.1l7.4,12.5,7.3-12.5h2.1v17.8s-2.4,0-2.4,0Z"/>
      <path class="cls-1" d="M501.8,395.7h-9.5l-2,4.4h-2.6l8.1-17.8h2.5l8.1,17.8h-2.7l-2-4.4ZM500.9,393.6l-3.8-8.7-3.8,8.7h7.7Z"/>
      <path class="cls-1" d="M511.6,382.3h7.5c1.9,0,3.5.4,5,1.1,1.5.7,2.6,1.8,3.4,3.1.8,1.3,1.2,2.9,1.2,4.6s-.4,3.3-1.2,4.6c-.8,1.3-1.9,2.4-3.4,3.1-1.5.7-3.1,1.1-5,1.1h-7.5v-17.8ZM518.9,397.9c1.4,0,2.7-.3,3.8-.8,1.1-.6,1.9-1.3,2.5-2.3.6-1,.9-2.2.9-3.5s-.3-2.5-.9-3.5c-.6-1-1.4-1.8-2.5-2.3-1.1-.6-2.4-.8-3.8-.8h-4.8v13.4h4.8Z"/>
      <path class="cls-1" d="M547,400.1l-3.8-5.5c-.5,0-.8,0-1.1,0h-4.4v5.4h-2.5v-17.8h6.9c2.3,0,4.1.6,5.4,1.7,1.3,1.1,2,2.6,2,4.5s-.3,2.5-1,3.5c-.7,1-1.6,1.7-2.9,2.1l4.2,6h-2.8ZM545.6,391.5c.8-.7,1.3-1.7,1.3-3s-.4-2.3-1.3-3c-.8-.7-2.1-1-3.7-1h-4.3v8h4.3c1.6,0,2.8-.3,3.7-1Z"/>
      <path class="cls-1" d="M556.1,382.3h2.5v17.8h-2.5v-17.8Z"/>
      <path class="cls-1" d="M566.5,382.3h7.5c1.9,0,3.5.4,5,1.1,1.5.7,2.6,1.8,3.4,3.1.8,1.3,1.2,2.9,1.2,4.6s-.4,3.3-1.2,4.6c-.8,1.3-1.9,2.4-3.4,3.1s-3.1,1.1-5,1.1h-7.5v-17.8ZM573.8,397.9c1.4,0,2.7-.3,3.8-.8,1.1-.6,1.9-1.3,2.5-2.3.6-1,.9-2.2.9-3.5s-.3-2.5-.9-3.5c-.6-1-1.4-1.8-2.5-2.3-1.1-.6-2.4-.8-3.8-.8h-4.8v13.4h4.8Z"/>
    </g>
  </g>
  <g>
    <path class="cls-2" d="M899.5,277.9c-.7-1.6-1.7-3-2.9-4.3-1.2-1.2-2.7-2.2-4.3-2.9-1.7-.7-3.4-1-5.3-1s-3.6.4-5.3,1c-1.6.7-3.1,1.6-4.3,2.9-1.2,1.2-2.2,2.7-2.9,4.3-.7,1.7-1.1,3.4-1.1,5.2s.4,3.6,1.1,5.2c.7,1.6,1.7,3,2.9,4.3,1.2,1.2,2.7,2.2,4.3,2.9,1.7.7,3.4,1,5.3,1s3.6-.4,5.3-1c1.6-.7,3.1-1.6,4.3-2.9,1.2-1.2,2.2-2.7,2.9-4.3.7-1.7,1.1-3.4,1.1-5.2s-.4-3.6-1.1-5.2ZM887,293.7c-6,0-10.8-4.8-10.8-10.6s4.8-10.6,10.8-10.6,10.8,4.8,10.8,10.6-4.8,10.6-10.8,10.6Z"/>
    <path class="cls-2" d="M892.2,285.4c-.4-.9-1-1.6-1.7-2.1,1.6-.8,2.4-2.1,2.4-3.8s-.6-2.5-1.9-3.3c-1.2-.8-2.8-1.2-4.8-1.2s-2.9.1-4.5.4h-.2v15.3h2.7v-6.5h2.5c1,0,1.9.5,2.5,1.5.7,1.1,1.2,2.7,1.5,4.8v.2h2.8v-.3c-.4-2.3-.9-4-1.3-5ZM886.6,282h-2.4v-4.7c.6,0,1.2,0,2,0,2.7,0,4,.8,4,2.3s-1.2,2.4-3.7,2.4Z"/>
  </g>
</svg>